<?xml version="1.0" standalone="no"?><!DOCTYPE svg PUBLIC "-//W3C//DTD SVG 1.1//EN" "http://www.w3.org/Graphics/SVG/1.1/DTD/svg11.dtd"><svg t="1551083650281" class="icon" style="" viewBox="0 0 1024 1024" version="1.1" xmlns="http://www.w3.org/2000/svg" p-id="4523" xmlns:xlink="http://www.w3.org/1999/xlink" width="200" height="200"><defs><style type="text/css"></style></defs><path d="M1012.509599 953.681428C1028.318969 970.544756 1027.415577 996.984045 1010.492023 1012.733189 993.568468 1028.512446 967.03884 1027.609053 951.22947 1010.745725L722.219452 766.468373C707.313475 750.568664 707.795284 726.448082 721.978547 710.51826L697.014799 700.671281C767.389081 632.374802 811.233734 537.066885 811.233734 431.460294 811.233734 223.830567 642.299322 55.52853 433.886655 55.52853 225.473988 55.52853 56.539577 223.830567 56.539577 431.460294 56.539577 639.09002 225.473988 807.392057 433.886655 807.392057 499.352504 807.392057 560.903651 790.769633 614.56517 761.529827L614.56517 823.924141C559.397997 849.309472 498.178094 863.854093 433.434959 863.854093 194.096153 863.854093 0.077541 670.497969 0.077541 431.942103 0.077541 193.386237 194.096153 0 433.434959 0 672.743652 0 866.762264 193.386237 866.762264 431.942103 866.762264 533.874898 830.807239 627.044786 771.48446 700.882072 775.820745 703.020101 779.976351 705.670053 783.469469 709.404076L1012.509599 953.681428Z" p-id="4524" fill="#bfbfbf"></path></svg>