<?xml version="1.0" standalone="no"?><!DOCTYPE svg PUBLIC "-//W3C//DTD SVG 1.1//EN" "http://www.w3.org/Graphics/SVG/1.1/DTD/svg11.dtd"><svg t="1551083426540" class="icon" style="" viewBox="0 0 1024 1024" version="1.1" xmlns="http://www.w3.org/2000/svg" p-id="3688" xmlns:xlink="http://www.w3.org/1999/xlink" width="200" height="200"><defs><style type="text/css"></style></defs><path d="M868.841 430.316a18.846 18.846 0 0 1-18.864-18.864V184.2695a28.3275 28.3275 0 0 0-28.296-28.296c-10.017 0-214.434 0.225-226.5615 0.603-9.3555 0.5265-18.315-6.0165-19.917-15.6915a18.882 18.882 0 0 1 15.4665-21.7305c5.2425-0.8865 228.7665-0.9045 231.012-0.9045 36.405 0 66.0195 29.6145 66.0195 66.0195v227.1825a18.8415 18.8415 0 0 1-18.8595 18.864zM143.8055 430.316a18.846 18.846 0 0 1-18.864-18.864V184.2695c0-36.405 29.6145-66.0195 66.0195-66.0195 2.2455 0 225.7695 0.018 231.012 0.9045a18.873 18.873 0 0 1 15.4665 21.7305c-1.62 9.675-10.431 16.2045-19.917 15.6915-12.1275-0.378-216.5445-0.603-226.5615-0.603a28.3275 28.3275 0 0 0-28.296 28.296v227.1825a18.8415 18.8415 0 0 1-18.8595 18.864zM821.6855 917.8145c-2.2455 0-225.7695-0.018-231.012-0.9045a18.873 18.873 0 0 1-15.4665-21.7305c1.602-9.675 10.5615-16.128 19.917-15.696 12.0735 0.378 216.5445 0.603 226.5615 0.603a28.3275 28.3275 0 0 0 28.296-28.296v-227.1825a18.846 18.846 0 0 1 18.864-18.864 18.846 18.846 0 0 1 18.864 18.864v227.1825c-0.0045 36.4095-29.619 66.024-66.024 66.024zM190.9655 917.8145c-36.405 0-66.0195-29.6145-66.0195-66.0195v-227.1825a18.846 18.846 0 0 1 18.864-18.864 18.846 18.846 0 0 1 18.864 18.864v227.1825a28.3275 28.3275 0 0 0 28.296 28.296c10.017 0 214.488-0.225 226.5615-0.603 9.5085-0.414 18.297 6.0165 19.917 15.696a18.8775 18.8775 0 0 1-15.4665 21.7305c-5.2515 0.882-228.7755 0.9-231.0165 0.9z" p-id="3689" fill="#bfbfbf"></path><path d="M919.7315 530.9765H92.9195a18.846 18.846 0 0 1-18.864-18.864 18.846 18.846 0 0 1 18.864-18.864h826.812a18.846 18.846 0 0 1 18.864 18.864 18.846 18.846 0 0 1-18.864 18.864z" p-id="3690" fill="#bfbfbf"></path></svg>