<?xml version="1.0" standalone="no"?><!DOCTYPE svg PUBLIC "-//W3C//DTD SVG 1.1//EN" "http://www.w3.org/Graphics/SVG/1.1/DTD/svg11.dtd"><svg t="1551083282388" class="icon" style="" viewBox="0 0 1024 1024" version="1.1" xmlns="http://www.w3.org/2000/svg" p-id="2313" xmlns:xlink="http://www.w3.org/1999/xlink" width="200" height="200"><defs><style type="text/css"></style></defs><path d="M511.097002 6.621987C280.832451 6.621987 94.212816 194.144621 94.212816 425.914168c0 115.884774 46.654909 220.632569 122.205761 296.484421l294.678425 296.484421 294.678424-296.484421c78.259847-78.861846 122.205761-185.415638 122.205762-296.484421-0.300999-231.769547-186.920635-419.292181-416.884186-419.292181z m0 605.610817c-49.363904 0-96.620811-19.865961-131.235744-54.781893s-54.179894-82.17284-54.179894-131.536743c0-49.363904 19.263962-96.620811 54.179894-131.536743 34.614932-34.915932 81.87184-54.480894 131.235744-54.781893 49.363904 0 96.620811 19.865961 131.235743 54.781893s54.179894 82.17284 54.179895 131.536743c0.300999 49.363904-19.263962 96.620811-54.179895 131.536743-34.915932 34.915932-82.17284 54.480894-131.235743 54.781893z m0 0" p-id="2314" fill="#ffffff"></path></svg>