<?xml version="1.0" standalone="no"?><!DOCTYPE svg PUBLIC "-//W3C//DTD SVG 1.1//EN" "http://www.w3.org/Graphics/SVG/1.1/DTD/svg11.dtd"><svg t="1551075686313" class="icon" style="" viewBox="0 0 1024 1024" version="1.1" xmlns="http://www.w3.org/2000/svg" p-id="3380" xmlns:xlink="http://www.w3.org/1999/xlink" width="200" height="200"><defs><style type="text/css"></style></defs><path d="M263.696798 758.412133 557.306882 558.169529l200.789049-292.794509L464.487893 465.612507 263.696798 758.412133zM488.753553 489.813698l44.284599 0 0 44.161802-44.284599 0L488.753553 489.813698zM883.467313 266.389116l-0.00307-0.00307c-10.311857-14.520715-29.320793-18.349927-42.86732-8.873088-13.547551 9.477862-16.178471 28.836769-6.068206 42.949184 0 0.202615 0.205685 0.202615 0.205685 0.202615 39.836287 60.695361 63.084781 133.092227 63.084781 211.125465 0 213.144448-173.291788 385.959376-387.024637 385.959376-213.733872 0-387.025661-172.814927-387.025661-385.959376 0-213.145471 173.291788-385.957329 387.025661-385.957329 75.423807 0 144.381341 21.579481 204.235544 58.07365 0.400113 0.202615 1.007957 0.606821 1.413186 0.810459 14.360056 9.476839 32.55751 8.068769 42.463114-4.6366 10.111289-12.907984 7.079232-31.66007-6.671956-42.346457l-5.458315-3.828188c-68.547189-42.551118-149.22772-67.354014-235.977479-67.354014-246.693542 0-446.680319 199.429075-446.680319 445.447235s199.98166 445.449281 446.680319 445.449281 446.680319-199.432145 446.680319-445.449281C957.478957 421.057755 930.180218 336.762907 883.467313 266.389116z" p-id="3381" fill="#1296db"></path></svg>