<?xml version="1.0" standalone="no"?><!DOCTYPE svg PUBLIC "-//W3C//DTD SVG 1.1//EN" "http://www.w3.org/Graphics/SVG/1.1/DTD/svg11.dtd"><svg t="1552282284460" class="icon" style="" viewBox="0 0 1024 1024" version="1.1" xmlns="http://www.w3.org/2000/svg" p-id="4846" xmlns:xlink="http://www.w3.org/1999/xlink" width="200" height="200"><defs><style type="text/css"></style></defs><path d="M332.8 661.211429L125.074286 542.72l118.491428 266.971429h533.942857l118.491429-266.971429-220.891429 113.371429L510.537143 424.228571z" fill="#f4ea2a" p-id="4847"></path><path d="M243.565714 601.965714l19.017143-69.485714 70.217143-19.748571-70.217143-19.017143-19.017143-69.485715-19.017143 69.485715-69.485714 19.017143 69.485714 19.748571zM471.771429 465.92l26.331428-96.548571 98.011429-27.794286-98.011429-26.331429-26.331428-96.548571-26.331429 96.548571-96.548571 26.331429 96.548571 27.794286zM777.508571 601.965714l19.017143-69.485714 69.485715-19.748571-69.485715-19.017143-19.017143-69.485715-19.748571 69.485715-69.485714 19.017143 69.485714 19.748571z" fill="#f4ea2a" p-id="4848"></path></svg>